PathFileType	4	(X/Y/Z)	C:\Users\Basilio\Documents\Thesis Gigler\squatting_fais\c3dfiles\036\SJ_pre3\markers_experimental.trc
DataRate	CameraRate	NumFrames	NumMarkers	Units	OrigDataRate	OrigDataStartFrame	OrigNumFrames
200.000000	200.000000	4	61	mm	200.000000	1836	2099
Frame#	Time	FHD			LBHD			RBHD			C7			T10			CLAV			LSHO			LUUPA			LMUPA			LDUPA			LLEP			LMEP			LRAD			LUL			LRFIN			RSHO			RUPA1			RMUPA			RDUPA			RLEP			RMEP			RRAD			RUL			RUFIN			LASI			RASI			USACR			LSACR			RSACR			LTHI1			LTHI2			LTHI3			LTHI4			LLFC			LMFC			LTIB1			LTIB2			LTIB3			LTIB4			LLMAL			LMMAL			LHEE			LMT1			LMT2			LMT5			RTHI			RTHI2			RTHI3			RTHI4			RLFC			RMFC			RTIB1			RTIB2			RTIB3			RTIB4			RLMAL			RMMAL			RHEE			RMT1			RMT2			RMT5			
		X1	Y1	Z1	X2	Y2	Z2	X3	Y3	Z3	X4	Y4	Z4	X5	Y5	Z5	X6	Y6	Z6	X7	Y7	Z7	X8	Y8	Z8	X9	Y9	Z9	X10	Y10	Z10	X11	Y11	Z11	X12	Y12	Z12	X13	Y13	Z13	X14	Y14	Z14	X15	Y15	Z15	X16	Y16	Z16	X17	Y17	Z17	X18	Y18	Z18	X19	Y19	Z19	X20	Y20	Z20	X21	Y21	Z21	X22	Y22	Z22	X23	Y23	Z23	X24	Y24	Z24	X25	Y25	Z25	X26	Y26	Z26	X27	Y27	Z27	X28	Y28	Z28	X29	Y29	Z29	X30	Y30	Z30	X31	Y31	Z31	X32	Y32	Z32	X33	Y33	Z33	X34	Y34	Z34	X35	Y35	Z35	X36	Y36	Z36	X37	Y37	Z37	X38	Y38	Z38	X39	Y39	Z39	X40	Y40	Z40	X41	Y41	Z41	X42	Y42	Z42	X43	Y43	Z43	X44	Y44	Z44	X45	Y45	Z45	X46	Y46	Z46	X47	Y47	Z47	X48	Y48	Z48	X49	Y49	Z49	X50	Y50	Z50	X51	Y51	Z51	X52	Y52	Z52	X53	Y53	Z53	X54	Y54	Z54	X55	Y55	Z55	X56	Y56	Z56	X57	Y57	Z57	X58	Y58	Z58	X59	Y59	Z59	X60	Y60	Z60	X61	Y61	Z61	

1837	9.18	-136.5569610595703	1545.70068359375	-975.5066528320315	-309.4292602539063	1480.913818359375	-1007.006591796875	-232.3588867187501	1497.420776367188	-876.4916992187502	-335.3102722167969	1373.512329101563	-973.1724243164065	-344.3875732421876	1066.567749023438	-962.3772583007815	-188.2090759277344	1313.9482421875	-961.1646118164065	-238.5798645019532	1354.832397460938	-1105.822509765625	-291.6808776855469	1222.0390625	-1231.257446289063	-256.3580322265626	1186.971557617188	-1232.04443359375	-301.4045104980469	1160.266845703125	-1262.47900390625	-302.2191772460938	1104.728149414063	-1275.343872070313	-357.8423767089844	1092.90478515625	-1237.996948242188	-177.3226165771485	909.2112426757815	-1228.85595703125	-209.2476654052735	925.4552001953127	-1168.253173828125	-178.5366668701172	871.0454101562502	-1140.199584960938	-240.7867889404297	1357.439819335938	-813.1016235351565	-287.0504150390626	1245.544799804688	-693.5632324218751	-247.0136260986329	1216.474853515625	-690.0908813476564	-284.4129638671876	1187.831665039063	-653.7986450195314	-277.3833923339844	1119.579345703125	-628.9446411132814	-336.0211486816407	1090.347778320313	-668.6303710937501	-204.4745025634766	933.8518676757815	-739.6199951171876	-159.2348785400391	923.807312011719	-691.2263183593751	-174.242172241211	894.2942504882815	-781.2614746093752	-160.0928649902344	875.7744140625002	-1083.667724609375	-175.7784881591797	886.1718750000002	-814.893493652344	-350.0783691406251	985.0615234375002	-965.2166748046877	-370.2086791992188	959.0015869140627	-991.105407714844	-373.4620056152344	963.4080200195315	-936.4019165039065	-254.1067810058594	752.5599975585939	-1164.111328125	-229.0177001953126	672.3790893554689	-1167.802612304688	-184.2755737304688	672.3059082031251	-1149.736572265625	-261.5695190429688	622.7512817382814	-1168.217529296875	-305.5691528320313	470.1086425781251	-1154.746948242188	-295.8221740722657	423.0974426269532	-1009.812805175781	-248.4069061279297	282.0545349121094	-1094.816162109375	-272.8789978027344	247.8061676025391	-1172.049072265625	-251.5981140136719	238.8275299072266	-1132.53173828125	-261.8224182128907	157.9691619873047	-1109.401611328125	-316.9309387207032	82.65583801269533	-1169.8134765625	-296.4555664062501	82.72808837890626	-1086.823974609375	-369.7657470703126	56.11628341674806	-1135.4140625	-179.462142944336	53.17977142333986	-1104.610107421875	-167.2543487548828	53.89748001098634	-1151.889404296875	-207.5342254638672	33.53772735595704	-1202.109252929688	-317.7266540527344	711.1246337890626	-750.6090087890626	-280.3301391601563	656.9353027343751	-738.4743652343751	-247.6668701171876	660.5616455078126	-734.9156494140626	-303.3496398925782	578.0183105468751	-746.3143310546876	-293.2927551269532	464.0599060058595	-749.2573852539064	-263.6390686035157	443.1721496582032	-893.543395996094	-244.2411041259766	308.7011413574219	-774.3693847656252	-310.3704833984376	234.6999969482422	-722.2051391601564	-266.9709167480469	232.3825988769532	-739.5340576171876	-255.226791381836	180.9973602294922	-766.2705078125001	-323.9659729003907	82.4546356201172	-741.2050170898439	-286.9997863769532	85.5060272216797	-815.6842041015627	-364.7027282714844	54.20308303833009	-780.156188964844	-167.7291870117188	54.13885879516603	-781.4130859375002	-169.1405334472657	57.42564392089845	-731.2948608398439	-211.2968750000001	33.18938064575196	-687.7825317382814	
1838	9.185	-136.4492645263672	1545.674438476563	-975.409606933594	-309.4173278808594	1480.9287109375	-1006.988647460938	-232.3206176757813	1497.435180664063	-876.4991455078127	-335.3085327148438	1373.54345703125	-973.1074218750002	-344.3831481933594	1066.585327148438	-962.3695068359377	-188.2325439453125	1313.930419921875	-961.138854980469	-238.5896759033204	1354.835327148438	-1105.794921875	-291.6633605957032	1222.080078125	-1231.185546875	-256.4650573730469	1186.988525390625	-1232.004272460938	-301.4051513671876	1160.285034179688	-1262.48095703125	-302.3468322753907	1104.828369140625	-1275.326293945313	-357.9327392578126	1092.966064453125	-1237.967895507813	-177.3463592529297	909.239440917969	-1228.860473632813	-209.3035583496094	925.4880981445315	-1168.299438476563	-178.5567932128907	871.0806884765627	-1140.187744140625	-240.7125244140626	1357.460327148438	-813.053161621094	-286.9206237792969	1245.468017578125	-693.5042724609376	-246.9421691894532	1216.46923828125	-690.0451660156251	-284.3469848632813	1187.836303710938	-653.7051391601564	-277.2179565429688	1119.56884765625	-628.9231567382814	-336.0076599121094	1090.367065429688	-668.5263061523439	-204.4258880615235	933.8311157226565	-739.6008300781251	-159.15283203125	923.7746582031252	-691.2012939453126	-174.2566223144532	894.2864379882815	-781.309265136719	-160.1031036376953	875.8381958007815	-1083.700561523438	-175.7721710205078	886.029968261719	-814.8385009765627	-350.1000366210938	985.0946044921877	-965.204528808594	-370.2279968261719	959.0037841796877	-991.0559692382815	-373.4352722167969	963.3906250000002	-936.420349121094	-254.0321807861329	752.6541137695314	-1164.11865234375	-228.9963989257813	672.4252319335939	-1167.850463867188	-184.2947235107422	672.3821411132814	-1149.803955078125	-261.4897460937501	622.7070312500001	-1168.263549804688	-305.0129394531251	470.048065185547	-1154.90185546875	-295.6279602050782	423.1159057617189	-1009.823303222656	-248.3414459228516	281.9787902832032	-1094.948364257813	-272.8681335449219	247.7248992919922	-1172.091186523438	-251.5950469970704	238.7756958007813	-1132.639770507813	-261.6255493164063	157.7978515625	-1109.384033203125	-317.0246582031251	82.68747711181642	-1169.79443359375	-296.4596557617188	82.76296997070314	-1086.827392578125	-369.7665405273438	56.12630081176759	-1135.361938476563	-179.4739532470703	53.11933517456056	-1104.658203125	-167.270004272461	53.94491195678712	-1151.860473632813	-207.5751037597657	33.52812957763673	-1202.094482421875	-317.7264709472657	711.0985107421876	-750.6478271484376	-280.1908569335938	657.1097412109376	-738.3615112304689	-247.6654205322266	660.5600585937501	-734.9208374023439	-303.4229736328126	577.9979858398439	-746.3314819335939	-293.2880249023438	464.0738525390626	-749.2894897460939	-263.5086975097657	443.1856079101564	-893.5791625976565	-244.2247314453126	308.7097473144532	-774.3362426757815	-310.3576354980469	234.7110290527344	-722.2046508789064	-266.9436645507813	232.3933105468751	-739.5733032226564	-255.1746978759766	180.9822235107422	-766.3046264648439	-323.9679870605469	82.46324157714845	-741.2432861328126	-286.7197570800782	85.47168731689455	-815.9011230468752	-364.7480163574219	54.25415802001955	-780.158386230469	-167.7149047851563	54.1144485473633	-781.415710449219	-169.1261291503907	57.43813323974611	-731.2908325195314	-211.3084716796876	33.1775245666504	-687.8214721679689	
1839	9.19	-136.0903472900391	1545.720336914063	-975.2056274414065	-309.1978454589844	1480.994750976563	-1006.889526367188	-232.2554626464844	1497.458251953125	-876.4296875000002	-335.2796325683594	1373.556518554688	-973.0491333007815	-344.3895568847657	1066.616455078125	-962.3245849609377	-188.3681335449219	1313.85400390625	-961.080261230469	-238.6035919189454	1354.836791992188	-1105.7138671875	-291.7107238769532	1222.128173828125	-1231.173828125	-256.3299560546876	1187.0234375	-1231.990356445313	-301.5344543457032	1160.359252929688	-1262.456176757813	-302.3423156738282	1104.8662109375	-1275.320434570313	-358.0130004882813	1093.028930664063	-1237.936279296875	-177.4066619873047	909.283874511719	-1228.873657226563	-209.3717498779297	925.510192871094	-1168.292724609375	-178.6589508056641	871.102722167969	-1140.223876953125	-240.7100067138672	1357.452514648438	-813.0228271484377	-286.7926635742188	1245.508666992188	-693.4927368164064	-246.8438720703126	1216.490234375	-689.9907226562501	-284.2776794433594	1187.808715820313	-653.6566772460939	-277.0683288574219	1119.572998046875	-628.9075317382814	-335.9444274902344	1090.358642578125	-668.4813842773439	-204.4706268310547	933.8483886718752	-739.6067504882814	-159.1209869384766	923.7605590820315	-691.2290649414064	-174.2322692871094	894.2749023437502	-781.3181152343752	-160.1271362304688	875.8313598632815	-1083.718994140625	-175.8571472167969	886.0794677734377	-814.8681640625002	-350.0918273925782	985.084411621094	-965.1895141601565	-370.2499084472657	958.9892578125002	-991.0225219726565	-373.3268432617188	963.3903808593752	-936.3193359375002	-254.0462646484376	752.5211181640626	-1164.147583007813	-228.9822082519532	672.4197387695314	-1167.888793945313	-184.1890563964844	672.4492187500001	-1149.894775390625	-261.5011901855469	622.7529907226564	-1168.271606445313	-304.8446960449219	469.9971313476564	-1154.938232421875	-295.5585937500001	423.0794372558595	-1009.910583496094	-247.9937744140626	282.0547790527344	-1094.943969726563	-272.7862548828126	247.6827545166016	-1172.118408203125	-251.5264739990235	238.7203063964844	-1132.638061523438	-261.5100402832032	157.9426727294922	-1109.385986328125	-317.0432434082032	82.66678619384767	-1169.775634765625	-296.4711608886719	82.80008697509767	-1086.822143554688	-369.8601989746094	56.21117019653322	-1135.320556640625	-179.53662109375	53.17779541015626	-1104.641357421875	-167.2156524658203	53.90686798095705	-1151.891723632813	-207.4638366699219	33.51314163208009	-1202.124145507813	-317.7524414062501	711.1207275390626	-750.6354980468751	-280.2262878417969	657.0157470703126	-738.3878784179689	-247.6891326904297	660.5487670898439	-734.8719482421876	-303.4250488281251	578.0081787109376	-746.3616333007814	-293.2943725585938	464.0589599609376	-749.3053588867189	-263.4865417480469	443.1667480468751	-893.5871582031252	-244.2420043945313	308.6915893554688	-774.3728027343752	-310.3770751953126	234.6923522949219	-722.2373657226564	-266.9053955078126	232.3514862060547	-739.5731811523439	-255.1941833496094	180.9936828613282	-766.3540649414064	-323.9466857910157	82.48200988769533	-741.2288818359376	-287.0144042968751	85.48696136474611	-815.6796875000002	-364.7175903320313	54.18191528320314	-780.202819824219	-167.7159271240235	54.10776138305665	-781.4010009765627	-169.6816711425782	57.48435974121095	-731.2131958007814	-211.3358459472657	33.23003387451173	-687.8086547851564	
1840	9.195	-135.845703125	1545.661865234375	-975.0781860351565	-309.0317687988282	1481.016845703125	-1006.85791015625	-232.2490692138672	1497.395263671875	-876.4119873046877	-335.3001708984376	1373.580078125	-972.995300292969	-344.3223266601563	1066.604736328125	-962.2967529296877	-188.3838500976563	1313.840698242188	-961.0653076171877	-238.6311187744141	1354.883911132813	-1105.679443359375	-291.7022094726563	1222.156372070313	-1231.149658203125	-256.4406433105469	1187.093627929688	-1231.951538085938	-301.4649047851563	1160.424926757813	-1262.41845703125	-302.3647460937501	1104.916748046875	-1275.256103515625	-358.0919799804688	1093.095581054688	-1237.90869140625	-177.4604034423828	909.3123779296877	-1228.851318359375	-209.3743896484376	925.5361328125002	-1168.34228515625	-178.5663604736328	871.1867675781252	-1140.234375	-240.6872100830079	1357.470092773438	-813.0034790039065	-286.6900329589844	1245.494384765625	-693.4059448242189	-246.7881622314454	1216.490112304688	-689.9656372070314	-284.2154846191407	1187.815795898438	-653.5918579101564	-276.8855895996094	1119.597412109375	-628.8677368164064	-335.8758544921876	1090.3310546875	-668.4285278320314	-204.4200134277344	933.8216552734377	-739.6136474609376	-159.0840759277344	923.707702636719	-691.2976074218751	-174.1476593017578	894.2608032226565	-781.3519287109377	-160.1499938964844	875.8535156250002	-1083.723999023438	-175.8040161132813	886.087829589844	-814.8719482421877	-350.1142883300782	985.053894042969	-965.1321411132815	-370.2477722167969	958.994567871094	-991.025573730469	-373.4097900390626	963.3963012695315	-936.313171386719	-254.0727844238282	752.6892089843751	-1164.107543945313	-228.9205932617188	672.4350585937501	-1167.87841796875	-184.1748046875	672.4722900390626	-1149.919311523438	-261.4404907226563	622.7559204101564	-1168.325561523438	-304.8298339843751	470.0254821777345	-1154.937622070313	-295.3984375000001	423.0755615234376	-1009.970642089844	-248.0723571777344	282.1515808105469	-1094.986572265625	-272.4559020996094	248.0892333984376	-1171.759643554688	-251.3784637451172	238.7583923339844	-1132.613647460938	-261.2125244140626	157.2661590576172	-1109.609985351563	-317.0040283203126	82.71443939208986	-1169.802856445313	-296.4572448730469	82.7832717895508	-1086.81787109375	-369.8779602050782	55.84527969360353	-1135.291748046875	-179.4881591796875	53.14595413208009	-1104.6337890625	-167.2935180664063	53.9329071044922	-1151.895385742188	-207.5773468017579	33.58454513549805	-1202.123168945313	-317.7920837402344	711.1251220703126	-750.6451416015626	-280.3531188964844	656.9320068359376	-738.5554199218751	-247.7149200439454	660.5408935546876	-734.8701171875001	-303.4086303710938	577.9902954101564	-746.4086303710939	-293.2839965820313	464.052215576172	-749.3076171875001	-263.3959655761719	443.1639709472657	-893.6422119140627	-244.2388610839844	308.6590881347657	-774.3487548828127	-310.3541259765626	234.6811065673829	-722.2700805664064	-266.8631591796876	232.3858795166016	-739.5884399414064	-255.1708221435547	181.0218811035157	-766.3326416015626	-323.9577941894532	82.48423004150392	-741.2263183593751	-286.7895812988282	85.45007324218751	-815.9292602539065	-364.7567749023438	54.2749481201172	-780.162536621094	-167.7127838134766	54.11446762084962	-781.4141845703127	-169.698226928711	57.49695968627931	-731.1462402343751	-211.3257904052735	33.21103286743165	-687.8225097656251	
